# xmcd
#
# Track frame offsets:
#	150
#	22675
#	40967
#	62322
#	78663
#	101326
#	121543
#	136933
#	148736
#	176450
#	192728
#	207973
#	243218
#
# Disc length: 3524 seconds
#
# Revision: 0
# Processed by: cddbd v1.5.2PL0 Copyright (c) Steve Scherf et al.
# Submitted via: dBpowerAMP V4.0
#
DISCID=a50dc20d
DTITLE=Zook - Root Canal Recovery
DYEAR=2006
DGENRE=Blues
TTITLE0=Fine
TTITLE1=Buckshot
TTITLE2=Boneshaker
TTITLE3=Root Canal Recovery
TTITLE4=Horses
TTITLE5=Slighty Insane
TTITLE6=Leap Frog
TTITLE7=Chemisty
TTITLE8=The Chase
TTITLE9=The Day She'll Dance
TTITLE10=Timbuktoo
TTITLE11=Double Of The Evil
TTITLE12=DATA
EXTD=
EXTT0=
EXTT1=
EXTT2=
EXTT3=
EXTT4=
EXTT5=
EXTT6=
EXTT7=
EXTT8=
EXTT9=
EXTT10=
EXTT11=
EXTT12=
PLAYORDER=
